#!OML:ASF I:\Actors\actors\Patient Classification 1\Patient 1\Session 1\Subject1.ASF
:FULLY-SPECIFIED
:DEGREES
170
root -0.761081 17.6696 7.40116 17.004 -8.19498 -9.20873
lowerback 12.6971 0.759681 2.53211
upperback -6.64262 1.593 0.611946
thorax -14.5325 0.532429 -1.1417
lowerneck -16.3094 3.3759 4.8105
upperneck 24.0738 4.91189 -5.6056
head 10.6985 2.00658 -2.13478
rclavicle 7.95139e-015 1.59028e-015
rhumerus 10.4937 13.9223 -98.3439
rradius 54.5794
rwrist -7.11
rhand -11.1859 -51.5596
rfingers 7.12502
rthumb 14.8414 -81.0081
lclavicle 7.95139e-015 1.59028e-015
lhumerus 17.182 -41.3796 88.6245
lradius 48.61
lwrist 65.1037
lhand -50.5872 -19.9508
lfingers 7.12502
lthumb -23.1526 8.67784
rfemur -14.2406 25.8546 23.0204
rtibia 1.04742
rfoot -7.1638 -16.8936
rtoes 1.30665
lfemur -8.79894 -26.4955 -2.41355
ltibia 0.360528
lfoot -17.4648 43.4115
ltoes 6.93567
171
root -0.762072 17.668 7.39387 17.3267 -8.44253 -9.12493
lowerback 12.5256 0.975755 2.67186
upperback -6.55011 1.91132 0.66225
thorax -14.301 0.675453 -1.23785
lowerneck -16.566 3.27806 4.70177
upperneck 23.2225 4.85209 -5.98815
head 10.441 1.92842 -2.25007
rclavicle -4.11484e-014 2.06736e-014
rhumerus 8.56231 15.8734 -99.1619
rradius 47.4244
rwrist -9.97627
rhand -9.22382 -52.1156
rfingers 7.12502
rthumb 16.731 -81.4147
lclavicle -4.11484e-014 2.06736e-014
lhumerus 13.5249 -40.9372 90.4226
lradius 43.1393
lwrist 66.4459
lhand -50.8659 -16.3481
lfingers 7.12502
lthumb -23.42 12.2467
rfemur -14.5896 26.1362 22.6689
rtibia 0.858346
rfoot -7.06373 -16.9442
rtoes 1.35926
lfemur -9.12203 -26.3383 -2.35936
ltibia 0.366281
lfoot -17.5394 43.4465
ltoes 7.07097
172
root -0.763144 17.6679 7.39199 17.5903 -8.4781 -9.00551
lowerback 12.4178 1.11689 2.81689
upperback -6.4646 2.13295 0.732834
thorax -14.1219 0.773839 -1.29081
lowerneck -16.812 3.20648 4.65333
upperneck 22.3268 4.81537 -6.40764
head 10.1727 1.86408 -2.38364
rclavicle 2.98177e-014 3.97569e-015
rhumerus 6.55409 18.1042 -99.882
rradius 41.911
rwrist -12.4858
rhand -7.81673 -52.7172
rfingers 7.12502
rthumb 18.0852 -81.8964
lclavicle 2.98177e-014 3.97569e-015
lhumerus 9.93274 -41.0663 92.1859
lradius 39.1068
lwrist 66.1833
lhand -51.2753 -12.8542
lfingers 7.12502
lthumb -23.8127 15.69
rfemur -14.8784 26.4005 22.3196
rtibia 0.721737
rfoot -7.06348 -17.1932
rtoes 1.57716
lfemur -9.47941 -26.2677 -2.31933
ltibia 0.409793
lfoot -17.4563 43.3956
ltoes 6.99084
173
root -0.764484 17.6697 7.39432 17.7825 -8.3301 -8.85643
lowerback 12.3549 1.18231 2.9695
upperback -6.37253 2.25352 0.800295
thorax -13.967 0.824057 -1.32767
lowerneck -17.0323 3.17389 4.69971
upperneck 21.4224 4.79775 -6.8109
head 9.90302 1.82047 -2.52344
rclavicle 1.43125e-014 1.51076e-014
rhumerus 4.48984 20.3139 -100.617
rradius 38.1262
rwrist -14.7716
rhand -7.39922 -53.1422
rfingers 7.12502
rthumb 18.4868 -82.2838
lclavicle 1.43125e-014 1.51076e-014
lhumerus 6.47289 -41.4761 93.9794
lradius 36.4723
lwrist 65.1809
lhand -51.6327 -9.74323
lfingers 7.12502
lthumb -24.1554 18.7559
rfemur -15.103 26.6433 21.9875
rtibia 0.655062
rfoot -7.15541 -17.6026
rtoes 1.87829
lfemur -9.84224 -26.2577 -2.2973
ltibia 0.481147
lfoot -17.2567 43.251
ltoes 6.74705
174
root -0.765897 17.6728 7.39959 17.8917 -8.02928 -8.68954
lowerback 12.3108 1.17909 3.12273
upperback -6.27011 2.2794 0.856723
thorax -13.8153 0.829546 -1.35482
lowerneck -17.2056 3.17468 4.82506
upperneck 20.5844 4.7835 -7.12451
head 9.65058 1.796 -2.64452
rclavicle 2.18663e-015 -2.22639e-014
rhumerus 2.49457 22.2198 -101.318
rradius 35.9319
rwrist -16.8128
rhand -8.00927 -53.4092
rfingers 7.12502
rthumb 17.8999 -82.6055
lclavicle 2.18663e-015 -2.22639e-014
lhumerus 3.40748 -41.8885 95.7082
lradius 34.9815
lwrist 64.3259
lhand -51.7332 -7.57917
lfingers 7.12502
lthumb -24.2517 20.9071
rfemur -15.2468 26.8402 21.6988
rtibia 0.653183
rfoot -7.31497 -18.1127
rtoes 2.16553
lfemur -10.178 -26.2732 -2.2962
ltibia 0.569358
lfoot -16.9546 43.0023
ltoes 6.34957
175
root -0.766593 17.6759 7.40642 17.9033 -7.60508 -8.52279
lowerback 12.268 1.11316 3.28544
upperback -6.15803 2.21946 0.900127
thorax -13.6562 0.79366 -1.38152
lowerneck -17.3242 3.1915 4.98201
upperneck 19.9112 4.75487 -7.28291
head 9.4433 1.78378 -2.72041
rclavicle -5.56597e-015 -2.46493e-014
rhumerus 0.790222 23.6764 -101.815
rradius 35.0749
rwrist -18.6537
rhand -9.06435 -53.6267
rfingers 7.12502
rthumb 16.8845 -82.9127
lclavicle -5.56597e-015 -2.46493e-014
lhumerus 1.06598 -42.3149 97.1385
lradius 34.3138
lwrist 63.9877
lhand -51.6066 -6.49214
lfingers 7.12502
lthumb -24.1303 22.0103
rfemur -15.2793 26.9457 21.4919
rtibia 0.695957
rfoot -7.51204 -18.6416
rtoes 2.39194
lfemur -10.4479 -26.266 -2.32111
ltibia 0.661508
lfoot -16.5336 42.6341
ltoes 5.77371
176
root -0.765441 17.6775 7.41393 17.797 -7.09046 -8.37074
lowerback 12.2251 0.99107 3.45322
upperback -6.04251 2.08369 0.943412
thorax -13.4974 0.721962 -1.39382
lowerneck -17.3845 3.20693 5.12087
upperneck 19.4983 4.70764 -7.27348
head 9.31056 1.77753 -2.74088
rclavicle 2.05742e-014 -1.66979e-014
rhumerus -0.384548 24.6107 -101.897
rradius 35.3021
rwrist -20.2278
rhand -10.0316 -53.8189
rfingers 7.12502
rthumb 15.9532 -83.1819
lclavicle 2.05742e-014 -1.66979e-014
lhumerus -0.292993 -42.8574 98.0796
lradius 34.1736
lwrist 64.0415
lhand -51.2329 -7.02593
lfingers 7.12502
lthumb -23.772 21.5236
rfemur -15.1555 26.923 21.4008
rtibia 0.752484
rfoot -7.71743 -19.1152
rtoes 2.5404
lfemur -10.5964 -26.2301 -2.3919
ltibia 0.736985
lfoot -16.0096 42.1681
ltoes 5.03193
177
root -0.761596 17.6764 7.42142 17.5632 -6.52755 -8.24226
lowerback 12.1944 0.818179 3.59525
upperback -5.93757 1.87815 1.01193
thorax -13.3646 0.620686 -1.3485
lowerneck -17.3941 3.21703 5.19668
upperneck 19.4263 4.66423 -7.13696
head 9.28227 1.77878 -2.71084
rclavicle 4.07509e-015 -1.74931e-014
rhumerus -0.926794 25.2491 -101.439
rradius 36.3651
rwrist -21.5308
rhand -10.6997 -54.2631
rfingers 7.12502
rthumb 15.3098 -83.6764
lclavicle 4.07509e-015 -1.74931e-014
lhumerus -0.522808 -43.6717 98.4046
lradius 34.4541
lwrist 64.1505
lhand -51.0409 -7.64527
lfingers 7.12502
lthumb -23.5879 20.928
rfemur -14.8489 26.7653 21.4378
rtibia 0.795382
rfoot -7.90923 -19.4867
rtoes 2.6063
lfemur -10.5817 -26.1947 -2.52821
ltibia 0.784217
lfoot -15.4391 41.6567
ltoes 4.18691
178
root -0.755093 17.6728 7.42807 17.2237 -5.97326 -8.14824
lowerback 12.1852 0.605762 3.68236
upperback -5.86608 1.61614 1.11973
thorax -13.2901 0.498353 -1.21701
lowerneck -17.3645 3.22319 5.19363
upperneck 19.7331 4.6455 -6.93294
head 9.37632 1.78952 -2.64576
rclavicle -1.54058e-014 -8.74653e-015
rhumerus -0.71869 25.8117 -100.359
rradius 38.0082
rwrist -22.5379
rhand -10.9261 -55.0091
rfingers 7.12502
rthumb 15.0916 -84.4389
lclavicle -1.54058e-014 -8.74653e-015
lhumerus 0.428721 -44.7603 98.017
lradius 35.0858
lwrist 64.196
lhand -51.1074 -8.25212
lfingers 7.12502
lthumb -23.6516 20.313
rfemur -14.3903 26.5026 21.5881
rtibia 0.820328
rfoot -8.07792 -19.7328
rtoes 2.61826
lfemur -10.4015 -26.1934 -2.72121
ltibia 0.797139
lfoot -14.9013 41.1724
ltoes 3.34927
